<svg width="334" height="66" viewBox="0 0 334 66" fill="none" xmlns="http://www.w3.org/2000/svg">
<path d="M4.936 53.106C3.496 53.106 2.416 52.71 1.696 51.918C0.976 51.126 0.616 50.316 0.616 49.488C0.616 48.516 0.796 47.778 1.156 47.274C1.516 46.77 2.218 46.392 3.262 46.14C4.63 45.852 6.052 45.492 7.528 45.06C9.04 44.628 10.48 44.178 11.848 43.71C13.252 43.206 14.476 42.702 15.52 42.198C16.564 41.658 17.32 41.154 17.788 40.686C17.212 40.362 16.294 39.984 15.034 39.552C13.774 39.084 12.37 38.544 10.822 37.932C9.31 37.284 7.852 36.528 6.448 35.664C5.044 34.8 3.892 33.792 2.992 32.64C2.092 31.488 1.642 30.174 1.642 28.698C1.642 26.646 2.164 24.72 3.208 22.92C4.252 21.12 5.638 19.446 7.366 17.898C9.094 16.35 10.966 14.928 12.982 13.632C15.034 12.336 17.068 11.166 19.084 10.122C21.136 9.042 22.972 8.088 24.592 7.26C25.204 6.9 25.78 6.666 26.32 6.558C26.896 6.414 27.418 6.342 27.886 6.342C29.506 6.342 30.622 6.738 31.234 7.53C31.846 8.322 32.152 9.132 32.152 9.96C32.152 10.536 31.882 11.22 31.342 12.012C30.802 12.768 29.938 13.47 28.75 14.118C27.598 14.766 26.068 15.234 24.16 15.522C23.836 15.558 23.548 15.594 23.296 15.63C21.856 16.35 20.308 17.214 18.652 18.222C16.996 19.23 15.43 20.292 13.954 21.408C12.514 22.488 11.326 23.568 10.39 24.648C9.454 25.728 8.986 26.7 8.986 27.564C8.986 28.536 9.382 29.418 10.174 30.21C10.966 30.966 11.974 31.668 13.198 32.316C14.458 32.928 15.772 33.522 17.14 34.098C18.544 34.674 19.858 35.268 21.082 35.88C22.342 36.456 23.368 37.104 24.16 37.824C24.952 38.544 25.348 39.354 25.348 40.254C25.348 41.478 24.934 42.648 24.106 43.764C23.278 44.88 22.198 45.924 20.866 46.896C19.534 47.832 18.076 48.678 16.492 49.434C14.908 50.19 13.342 50.838 11.794 51.378C10.282 51.954 8.914 52.386 7.69 52.674C6.466 52.962 5.548 53.106 4.936 53.106ZM71.9508 23.784C71.9508 24.216 71.8068 24.594 71.5188 24.918C71.2308 25.242 70.8708 25.494 70.4388 25.674C69.8268 25.926 68.7648 26.25 67.2528 26.646C65.7408 27.042 63.9048 27.492 61.7448 27.996C59.6208 28.5 57.3348 29.022 54.8868 29.562C52.4388 30.066 49.9908 30.552 47.5428 31.02C46.6068 34.476 45.6528 38.04 44.6808 41.712C43.7088 45.348 42.7368 48.93 41.7648 52.458C41.4048 53.718 40.9728 54.672 40.4688 55.32C39.9648 56.004 39.1008 56.346 37.8768 56.346C36.5448 56.346 35.6448 55.914 35.1768 55.05C34.7448 54.222 34.6908 53.088 35.0148 51.648C35.9508 47.724 36.8148 44.07 37.6068 40.686C38.4348 37.302 39.1008 34.566 39.6048 32.478C37.4448 32.838 35.5548 33.126 33.9348 33.342C32.3148 33.522 31.1628 33.594 30.4788 33.558C29.7228 33.486 29.0928 33.18 28.5888 32.64C28.0848 32.1 27.8508 31.434 27.8868 30.642C27.9588 29.922 28.2828 29.31 28.8588 28.806C29.4348 28.266 30.1188 27.942 30.9108 27.834C32.0268 27.726 33.4668 27.564 35.2308 27.348C36.9948 27.132 38.9388 26.88 41.0628 26.592C41.5308 24.756 42.0708 22.866 42.6828 20.922C43.2948 18.942 43.9248 17.052 44.5728 15.252C45.2568 13.416 45.9048 11.814 46.5168 10.446C47.1288 9.078 47.6868 8.088 48.1908 7.476C48.5868 7.008 49.0728 6.648 49.6488 6.396C50.2608 6.144 50.8548 6.018 51.4308 6.018C52.1868 6.018 52.7988 6.288 53.2668 6.828C53.7348 7.368 53.9688 7.998 53.9688 8.718C53.9688 9.006 53.9508 9.312 53.9148 9.636C53.8788 9.924 53.8068 10.212 53.6988 10.5C53.0148 12.3 52.2768 14.478 51.4848 17.034C50.7288 19.59 49.9368 22.398 49.1088 25.458C51.8088 25.062 54.4548 24.666 57.0468 24.27C59.6748 23.838 62.0508 23.442 64.1748 23.082C66.3348 22.686 68.0628 22.344 69.3588 22.056C70.0788 21.804 70.6908 21.858 71.1948 22.218C71.6988 22.542 71.9508 23.064 71.9508 23.784ZM82.2889 56.43C81.4609 56.43 80.7049 56.088 80.0209 55.404C79.3729 54.756 79.0489 53.658 79.0489 52.11C79.0489 50.958 79.1389 49.356 79.3189 47.304C79.5349 45.216 79.9309 42.534 80.5069 39.258C79.2469 41.85 77.9329 44.154 76.5649 46.17C75.1969 48.186 73.8469 49.77 72.5149 50.922C71.2189 52.038 69.9769 52.596 68.7889 52.596C66.8809 52.596 65.3689 52.02 64.2529 50.868C63.1369 49.68 62.5789 47.466 62.5789 44.226C62.5789 42.678 62.7049 40.932 62.9569 38.988C63.2449 37.044 63.6049 35.1 64.0369 33.156C64.4689 31.212 64.9009 29.484 65.3329 27.972C65.8009 26.424 66.2149 25.272 66.5749 24.516C66.8629 23.868 67.2229 23.364 67.6549 23.004C68.1229 22.644 68.7169 22.464 69.4369 22.464C70.5889 22.464 71.4709 22.842 72.0829 23.598C72.6949 24.354 73.0009 25.128 73.0009 25.92C73.0009 26.532 72.8569 27.414 72.5689 28.566C72.3169 29.718 71.9929 30.996 71.5969 32.4C71.2369 33.804 70.8589 35.244 70.4629 36.72C70.0669 38.196 69.7249 39.582 69.4369 40.878C69.1849 42.174 69.0589 43.272 69.0589 44.172C69.0589 45.288 69.4909 45.846 70.3549 45.846C70.8589 45.846 71.5069 45.36 72.2989 44.388C73.1269 43.416 73.9909 42.12 74.8909 40.5C75.8269 38.844 76.7629 37.044 77.6989 35.1C78.6709 33.12 79.5529 31.122 80.3449 29.106C81.1729 27.054 81.8749 25.164 82.4509 23.436C82.8109 22.356 83.2969 21.6 83.9089 21.168C84.5209 20.736 85.2229 20.52 86.0149 20.52C87.2389 20.52 88.1749 20.862 88.8229 21.546C89.5069 22.23 89.8489 23.202 89.8489 24.462C89.8489 25.038 89.7589 26.01 89.5789 27.378C89.3989 28.746 89.1649 30.348 88.8769 32.184C88.6249 34.02 88.3189 35.964 87.9589 38.016C87.5989 40.068 87.2389 42.084 86.8789 44.064C86.5549 46.044 86.2309 47.862 85.9069 49.518C85.5829 51.138 85.3129 52.434 85.0969 53.406C84.7369 54.846 84.3049 55.71 83.8009 55.998C83.2969 56.286 82.7929 56.43 82.2889 56.43ZM119.619 22.11C121.599 17.394 123.345 12.534 124.857 7.53C125.145 6.522 125.559 5.748 126.099 5.208C126.675 4.668 127.467 4.398 128.475 4.398C129.303 4.398 129.933 4.65 130.365 5.154C130.797 5.622 131.013 6.27 131.013 7.098C131.013 7.782 130.725 9.006 130.149 10.77C129.573 12.498 128.871 14.694 128.043 17.358C127.215 20.022 126.387 23.1 125.559 26.592C124.731 30.084 124.029 33.918 123.453 38.094C122.877 42.27 122.589 46.734 122.589 51.486C122.589 52.782 122.337 53.844 121.833 54.672C121.365 55.536 120.537 55.968 119.349 55.968C118.053 55.968 117.099 55.518 116.487 54.618C115.911 53.718 115.623 52.566 115.623 51.162C115.623 48.39 115.713 46.086 115.893 44.25C116.109 42.378 116.325 40.776 116.541 39.444C114.777 42.468 112.905 45.078 110.925 47.274C108.981 49.434 107.109 51.09 105.309 52.242C103.509 53.43 101.961 54.024 100.665 54.024C98.5409 54.024 96.8129 53.43 95.4809 52.242C94.1489 51.054 93.4829 49.254 93.4829 46.842C93.4829 44.97 93.9329 43.044 94.8329 41.064C95.7329 39.048 96.9209 37.068 98.3969 35.124C99.8729 33.18 101.493 31.362 103.257 29.67C105.057 27.942 106.857 26.43 108.657 25.134C110.457 23.802 112.131 22.758 113.679 22.002C115.227 21.246 116.487 20.868 117.459 20.868C118.539 20.868 119.259 21.282 119.619 22.11ZM118.377 25.026C118.161 25.17 117.927 25.314 117.675 25.458C117.459 25.566 117.243 25.692 117.027 25.836C115.659 26.7 114.201 27.744 112.653 28.968C111.105 30.156 109.575 31.488 108.063 32.964C106.551 34.404 105.165 35.916 103.905 37.5C102.681 39.048 101.691 40.596 100.935 42.144C100.215 43.656 99.8549 45.114 99.8549 46.518C99.8549 46.77 99.9629 46.95 100.179 47.058C100.395 47.166 100.593 47.22 100.773 47.22C102.033 47.22 103.383 46.662 104.823 45.546C106.299 44.43 107.793 42.882 109.305 40.902C110.853 38.886 112.383 36.528 113.895 33.828C115.443 31.128 116.937 28.194 118.377 25.026ZM142.586 65.85C140.57 65.85 138.734 65.724 137.078 65.472C135.422 65.256 133.802 64.896 132.218 64.392C130.634 63.888 128.924 63.222 127.088 62.394C126.332 62.034 125.702 61.656 125.198 61.26C124.694 60.864 124.442 60.27 124.442 59.478C124.442 58.326 124.802 57.444 125.522 56.832C126.206 56.256 127.16 55.968 128.384 55.968C129.032 55.968 129.86 56.184 130.868 56.616C131.876 57.084 133.028 57.606 134.324 58.182C135.656 58.794 137.132 59.316 138.752 59.748C140.372 60.216 142.118 60.45 143.99 60.45C145.898 60.45 147.68 59.658 149.336 58.074C150.992 56.49 152.324 54.258 153.332 51.378C154.376 48.534 154.898 45.168 154.898 41.28C154.898 40.38 154.88 39.408 154.844 38.364C154.808 37.284 154.772 36.15 154.736 34.962C153.44 37.41 152.036 39.696 150.524 41.82C149.012 43.944 147.446 45.672 145.826 47.004C144.242 48.3 142.64 48.948 141.02 48.948C139.04 48.948 137.6 48.48 136.7 47.544C135.836 46.572 135.404 45.042 135.404 42.954C135.404 41.19 135.53 39.264 135.782 37.176C136.07 35.052 136.448 32.91 136.916 30.75C137.384 28.59 137.924 26.538 138.536 24.594C139.184 22.614 139.868 20.904 140.588 19.464C141.128 18.42 141.956 17.898 143.072 17.898C143.792 17.898 144.512 18.24 145.232 18.924C145.988 19.608 146.366 20.526 146.366 21.678C146.366 22.326 146.204 23.262 145.88 24.486C145.556 25.71 145.16 27.096 144.692 28.644C144.26 30.156 143.81 31.758 143.342 33.45C142.874 35.106 142.478 36.744 142.154 38.364C141.83 39.948 141.668 41.388 141.668 42.684C141.668 42.828 141.776 42.9 141.992 42.9C142.424 42.9 143 42.54 143.72 41.82C144.476 41.064 145.304 40.092 146.204 38.904C147.14 37.68 148.076 36.348 149.012 34.908C149.984 33.432 150.92 31.974 151.82 30.534C152.72 29.094 153.53 27.78 154.25 26.592C154.142 26.016 154.07 25.512 154.034 25.08C154.034 24.612 154.034 24.216 154.034 23.892C154.034 22.416 154.286 21.192 154.79 20.22C155.33 19.248 156.374 18.762 157.922 18.762C158.93 18.762 159.704 19.14 160.244 19.896C160.784 20.616 161.054 21.642 161.054 22.974C161.054 23.55 160.964 24.216 160.784 24.972C160.604 25.692 160.244 26.844 159.704 28.428L160.298 26.754C160.622 29.994 160.892 32.874 161.108 35.394C161.36 37.914 161.486 40.416 161.486 42.9C161.486 47.58 160.694 51.63 159.11 55.05C157.562 58.506 155.366 61.17 152.522 63.042C149.714 64.914 146.402 65.85 142.586 65.85ZM192.918 37.284C190.83 37.284 188.778 37.032 186.762 36.528C184.782 36.024 182.91 35.376 181.146 34.584C180.354 37.824 179.67 41.37 179.094 45.222C178.95 46.302 178.734 47.292 178.446 48.192C178.158 49.056 177.708 49.758 177.096 50.298C176.484 50.838 175.584 51.108 174.396 51.108C173.28 51.108 172.542 50.676 172.182 49.812C171.822 48.948 171.642 47.886 171.642 46.626C171.642 46.23 171.786 45.204 172.074 43.548C172.362 41.892 172.722 39.894 173.154 37.554C173.586 35.178 174.036 32.73 174.504 30.21C173.028 28.734 172.29 27.384 172.29 26.16C172.29 25.548 172.47 24.972 172.83 24.432C173.226 23.856 173.982 23.568 175.098 23.568C175.242 23.568 175.44 23.622 175.692 23.73C176.052 21.714 176.358 19.914 176.61 18.33C176.898 16.71 177.06 15.54 177.096 14.82C177.168 13.452 177.384 12.444 177.744 11.796C178.104 11.112 178.554 10.662 179.094 10.446C179.67 10.194 180.246 10.068 180.822 10.068C181.578 10.068 182.154 10.23 182.55 10.554C182.946 10.878 183.144 11.598 183.144 12.714C183.144 13.794 183.126 14.784 183.09 15.684C184.854 12.66 186.69 10.536 188.598 9.312C190.506 8.052 192.594 7.422 194.862 7.422C197.094 7.422 199.038 8.034 200.694 9.258C202.35 10.482 203.628 12.246 204.528 14.55C205.464 16.818 205.932 19.554 205.932 22.758C205.932 27.654 204.798 31.308 202.53 33.72C200.298 36.096 197.094 37.284 192.918 37.284ZM182.982 28.212C184.314 28.932 185.736 29.562 187.248 30.102C188.76 30.606 190.308 30.858 191.892 30.858C194.448 30.858 196.32 30.192 197.508 28.86C198.732 27.528 199.344 25.332 199.344 22.272C199.344 16.836 197.706 14.118 194.43 14.118C192.342 14.118 190.308 15.288 188.328 17.628C186.384 19.968 184.602 23.496 182.982 28.212ZM223.448 53.7C220.208 53.7 217.652 52.71 215.78 50.73C213.944 48.714 213.026 45.852 213.026 42.144C213.026 40.128 213.296 37.77 213.836 35.07C214.376 32.334 215.078 29.454 215.942 26.43C216.842 23.37 217.796 20.346 218.804 17.358C219.848 14.37 220.874 11.598 221.882 9.042C222.89 6.486 223.772 4.344 224.528 2.616C225.176 1.284 226.094 0.617998 227.282 0.617998C228.038 0.617998 228.65 0.851999 229.118 1.32C229.622 1.788 229.874 2.544 229.874 3.588C229.874 4.092 229.622 5.19 229.118 6.882C228.614 8.574 227.948 10.662 227.12 13.146C226.328 15.594 225.464 18.24 224.528 21.084C223.628 23.928 222.764 26.79 221.936 29.67C221.144 32.55 220.496 35.268 219.992 37.824C219.488 40.344 219.236 42.486 219.236 44.25C219.236 44.97 219.434 45.546 219.83 45.978C220.262 46.41 220.82 46.626 221.504 46.626C222.98 46.626 224.492 46.356 226.04 45.816C227.624 45.276 229.172 44.592 230.684 43.764C232.232 42.936 233.69 42.054 235.058 41.118C236.426 40.182 237.65 39.3 238.73 38.472C239.846 37.608 240.746 36.924 241.43 36.42C242.33 35.736 242.942 35.394 243.266 35.394C244.49 35.394 245.102 35.988 245.102 37.176C245.102 37.464 244.742 38.058 244.022 38.958C243.41 39.75 242.546 40.758 241.43 41.982C240.314 43.206 239.018 44.502 237.542 45.87C236.102 47.202 234.554 48.462 232.898 49.65C231.278 50.838 229.658 51.81 228.038 52.566C226.418 53.322 224.888 53.7 223.448 53.7ZM244.851 51.216C242.583 51.216 240.927 50.532 239.883 49.164C238.875 47.76 238.371 45.978 238.371 43.818C238.371 41.766 238.821 39.786 239.721 37.878C240.621 35.934 241.827 34.08 243.339 32.316C244.851 30.552 246.543 28.914 248.415 27.402C250.287 25.854 252.177 24.468 254.085 23.244C256.029 21.984 257.883 20.922 259.647 20.058C261.411 19.158 262.941 18.474 264.237 18.006C265.533 17.538 266.469 17.304 267.045 17.304C267.657 17.304 268.161 17.466 268.557 17.79C268.989 18.078 269.205 18.654 269.205 19.518C269.205 20.418 268.845 21.228 268.125 21.948C267.405 22.668 266.523 23.28 265.479 23.784C264.003 24.504 262.329 25.386 260.457 26.43C258.621 27.438 256.767 28.59 254.895 29.886C253.023 31.182 251.295 32.568 249.711 34.044C248.163 35.52 246.903 37.068 245.931 38.688C244.959 40.272 244.473 41.892 244.473 43.548C244.473 43.908 244.545 44.196 244.689 44.412C244.833 44.628 245.139 44.736 245.607 44.736C246.219 44.736 247.029 44.448 248.037 43.872C249.045 43.26 250.143 42.468 251.331 41.496C252.519 40.488 253.707 39.39 254.895 38.202C256.083 36.978 257.181 35.754 258.189 34.53C259.233 33.27 260.097 32.1 260.781 31.02C261.285 30.192 261.879 29.508 262.563 28.968C263.283 28.428 264.021 28.158 264.777 28.158C265.389 28.158 265.893 28.338 266.289 28.698C266.721 29.022 266.937 29.616 266.937 30.48C266.937 30.768 266.919 31.452 266.883 32.532C266.847 33.576 266.793 34.854 266.721 36.366C266.685 37.842 266.667 39.39 266.667 41.01C266.667 42.414 266.793 43.638 267.045 44.682C267.333 45.69 267.927 46.194 268.827 46.194C269.907 46.194 271.023 45.816 272.175 45.06C273.327 44.268 274.443 43.278 275.523 42.09C276.639 40.866 277.665 39.57 278.601 38.202C279.537 36.834 280.329 35.538 280.977 34.314C281.661 33.054 282.147 32.046 282.435 31.29C282.903 28.122 283.515 25.638 284.271 23.838C285.027 22.002 285.855 20.706 286.755 19.95C287.691 19.194 288.591 18.816 289.455 18.816C290.427 18.816 291.237 19.05 291.885 19.518C292.569 19.986 292.911 21.084 292.911 22.812C292.911 23.712 292.533 25.062 291.777 26.862C291.021 28.662 290.013 30.642 288.753 32.802C288.465 34.422 288.285 36.096 288.213 37.824C288.141 39.552 288.249 41.172 288.537 42.684C289.509 42 290.499 40.992 291.507 39.66C292.515 38.292 293.523 36.78 294.531 35.124C295.539 33.432 296.547 31.74 297.555 30.048C298.563 28.32 299.553 26.736 300.525 25.296C301.533 23.856 302.505 22.704 303.441 21.84C304.413 20.94 305.367 20.49 306.303 20.49C307.275 20.49 308.157 20.67 308.949 21.03C309.777 21.354 310.461 22.002 311.001 22.974C311.577 23.91 312.009 25.26 312.297 27.024C312.621 28.752 312.783 31.02 312.783 33.828C312.783 35.304 312.927 36.744 313.215 38.148C313.503 39.516 313.989 40.65 314.673 41.55C315.357 42.414 316.311 42.846 317.535 42.846C319.515 42.846 321.279 42.522 322.827 41.874C324.375 41.19 325.725 40.398 326.877 39.498C328.029 38.598 328.983 37.824 329.739 37.176C330.531 36.492 331.143 36.15 331.575 36.15C332.295 36.15 332.835 36.366 333.195 36.798C333.591 37.194 333.789 37.698 333.789 38.31C333.789 38.67 333.483 39.3 332.871 40.2C332.295 41.064 331.485 42.036 330.441 43.116C329.433 44.16 328.245 45.186 326.877 46.194C325.545 47.166 324.123 47.976 322.611 48.624C321.099 49.272 319.569 49.596 318.021 49.596C315.213 49.596 312.891 49.092 311.055 48.084C309.255 47.04 307.905 45.312 307.005 42.9C306.141 40.452 305.709 37.158 305.709 33.018C305.709 32.766 305.709 32.532 305.709 32.316C305.709 32.1 305.709 31.884 305.709 31.668C305.709 30.768 305.691 29.994 305.655 29.346C305.655 28.698 305.565 28.194 305.385 27.834C304.809 28.806 304.107 30.03 303.279 31.506C302.487 32.982 301.605 34.566 300.633 36.258C299.661 37.95 298.617 39.624 297.501 41.28C296.421 42.936 295.323 44.448 294.207 45.816C293.091 47.184 291.975 48.282 290.859 49.11C289.779 49.938 288.753 50.352 287.781 50.352C287.061 50.352 286.269 49.992 285.405 49.272C284.577 48.552 283.875 47.58 283.299 46.356C282.723 45.096 282.435 43.674 282.435 42.09C280.887 44.034 279.285 45.816 277.629 47.436C275.973 49.02 274.335 50.28 272.715 51.216C271.131 52.188 269.619 52.674 268.179 52.674C266.991 52.674 265.839 52.332 264.723 51.648C263.643 50.964 262.707 49.74 261.915 47.976C261.123 46.212 260.619 43.71 260.403 40.47C258.711 42.594 256.947 44.466 255.111 46.086C253.311 47.706 251.529 48.966 249.765 49.866C248.037 50.766 246.399 51.216 244.851 51.216Z" fill="white"/>
</svg>
